<svg width="24" height="24" viewBox="0 0 24 24" fill="none" xmlns="http://www.w3.org/2000/svg">
<path d="M20.9994 16.4774V19.1873C21.0005 19.4389 20.9488 19.6879 20.8479 19.9184C20.7469 20.1489 20.5988 20.3558 20.4131 20.5259C20.2273 20.696 20.008 20.8254 19.7693 20.906C19.5305 20.9866 19.2775 21.0166 19.0265 20.9939C16.2415 20.6919 13.5664 19.7421 11.216 18.2208C9.02929 16.8339 7.17534 14.9835 5.7858 12.801C4.25627 10.4444 3.30442 7.7614 3.00735 4.96929C2.98473 4.7195 3.01447 4.46774 3.09468 4.23005C3.17489 3.99236 3.30381 3.77394 3.47323 3.5887C3.64265 3.40346 3.84885 3.25546 4.07872 3.15412C4.30858 3.05278 4.55707 3.00032 4.80837 3.00009H7.52347C7.96269 2.99577 8.3885 3.15101 8.72152 3.43687C9.05455 3.72272 9.27207 4.11969 9.33354 4.55377C9.44814 5.42101 9.66067 6.27252 9.96707 7.09206C10.0888 7.41538 10.1152 7.76675 10.043 8.10456C9.97082 8.44236 9.80313 8.75244 9.5598 8.99804L8.41041 10.1452C9.69877 12.4067 11.5748 14.2792 13.8406 15.5651L14.99 14.4179C15.2361 14.175 15.5467 14.0076 15.8852 13.9356C16.2237 13.8635 16.5757 13.8898 16.8996 14.0114C17.7207 14.3172 18.5739 14.5293 19.4428 14.6437C19.8824 14.7056 20.2839 14.9266 20.5709 15.2647C20.858 15.6028 21.0105 16.0344 20.9994 16.4774Z" stroke="white" stroke-width="2" stroke-linecap="round" stroke-linejoin="round"/>
</svg>
